# xmcd
#
# Track frame offsets: 
#        150
#        16985
#        31830
#        52257
#        71815
#        82832
#        102000
#        120652
#        138085
#        158855
#        175467
#        189652
#        209950
#        228717
#
# Disc length: 3203 seconds
#
# Revision: 1
# Processed by: cddbd v1.5.2PL0 Copyright (c) Steve Scherf et al.
# Submitted via: ExactAudioCopy v1.0b3
#
DISCID=c60c810e
DTITLE=A.L. James and Spare Change - Alligator Stew
DYEAR=1999
DGENRE=Blues
TTITLE0=Stop Messin' Round
TTITLE1=My Girl Pearl
TTITLE2=Sugar Sweet
TTITLE3=Someone To Love
TTITLE4=New Orleans
TTITLE5=Alligator Stew
TTITLE6=Standin' Out In The Rain
TTITLE7=Heat Of The Night
TTITLE8=Mr. Boogs
TTITLE9=Little Blue Volkswagon
TTITLE10=Never Be The Same
TTITLE11=Satisfaction Guaranteed
TTITLE12=Get On Outta Here
TTITLE13=Change
EXTD=
EXTT0=
EXTT1=
EXTT2=
EXTT3=
EXTT4=
EXTT5=
EXTT6=
EXTT7=
EXTT8=
EXTT9=
EXTT10=
EXTT11=
EXTT12=
EXTT13=
PLAYORDER=
